<?xml version="1.0" encoding="utf-8"?>
<!-- Generated by IcoMoon.io -->
<svg version="1.1" xmlns="http://www.w3.org/2000/svg" xmlns:xlink="http://www.w3.org/1999/xlink" width="848" height="416" viewBox="0 0 848 416">
<svg id="icon-light-bulb" width="200" height="200" viewBox="0 0 200 200" x="0" y="0">
<path d="M70 133.3c-23.842-11.501-40-35.486-40-63.246 0-38.66 31.34-70 70-70s70 31.34 70 70c0 27.759-16.158 51.744-39.582 63.063l-0.418 0.182v26.7h-60v-26.7zM70 170h60v15c0 8.3-6.7 15-15 15h-30c-8.284 0-15-6.716-15-15v0-15zM90 119v21h20v-21c22.986-4.815 40-24.915 40-48.99 0-27.614-22.386-50-50-50s-50 22.386-50 50c0 24.074 17.014 44.175 39.674 48.933l0.326 0.057z"></path>
</svg>
<svg id="icon-translate" width="200" height="200" viewBox="0 0 200 200" x="216" y="0">
<path d="M74.1 90l22.4 22.4-8.3 20-28.2-28.4-33 33-14-14.2 32.8-32.8-8.8-8.8c-5.3-5.3-10-13-13-21.2h22c1.5 2.8 3.3 5.3 5.1 7l8.9 9 8.8-8.8c6-6.2 11.2-18.8 11.2-27.2h-80v-20h50v-20h20v20h50v20h-20c0 13.7-7.4 31.5-17 41.2l-9 8.8zM112.5 170l-12.5 30h-20l50-120h20l50 120h-20l-12.5-30h-55zM120.8 150h38.4l-19.2-46-19.2 46z"></path>
</svg>
<svg id="icon-add-outline" width="200" height="200" viewBox="0 0 200 200" x="432" y="0">
<path d="M110 90h40v20h-40v40h-20v-40h-40v-20h40v-40h20v40zM100 200c-55.229 0-100-44.771-100-100s44.771-100 100-100v0c55.229 0 100 44.771 100 100s-44.771 100-100 100v0zM100 180c44.183 0 80-35.817 80-80s-35.817-80-80-80v0c-44.183 0-80 35.817-80 80s35.817 80 80 80v0z"></path>
</svg>
<svg id="icon-share2" width="200" height="200" viewBox="0 0 200 200" x="0" y="216">
<path d="M168.75 137.5c-8.82 0-16.781 3.66-22.463 9.537l-84.18-42.090c0.257-1.612 0.394-3.263 0.394-4.947s-0.137-3.335-0.394-4.946l84.18-42.090c5.682 5.877 13.643 9.537 22.463 9.537 17.259 0 31.25-13.991 31.25-31.25s-13.991-31.25-31.25-31.25-31.25 13.991-31.25 31.25c0 1.684 0.137 3.335 0.394 4.946l-84.18 42.091c-5.682-5.877-13.643-9.537-22.463-9.537-17.259 0-31.25 13.991-31.25 31.25s13.991 31.25 31.25 31.25c8.82 0 16.781-3.66 22.463-9.537l84.18 42.090c-0.256 1.611-0.394 3.262-0.394 4.946 0 17.259 13.991 31.25 31.25 31.25s31.25-13.991 31.25-31.25c0-17.259-13.991-31.25-31.25-31.25z"></path>
</svg>
</svg>
